<svg class="svg-icon" style="width: 1.1904296875em; height: 1em;vertical-align: middle;overflow: hidden;" fill="#ffffff" viewBox="0 0 1219 1024" version="1.1" xmlns="http://www.w3.org/2000/svg"><path d="M1178.220229 583.712836 651.999097 717.424763C635.243632 721.682753 618.37757 717.867152 605.465356 708.770538 596.147548 711.314272 586.083209 711.75666 576.04652 709.185277L42.664224 573.150811C13.19009 565.630206-4.284256 536.819654 3.595789 508.783283 6.941352 496.94939 14.379009 487.32744 23.945661 480.525717L115.547731 388.895997C132.828532 371.615195 164.348714 375.126654 185.942803 396.720743 207.536892 418.314832 211.048351 449.835014 193.767549 467.115815L165.26114 495.594575 604.608228 607.657114C612.211781 609.592564 618.902907 613.021075 624.681607 617.389662L1064.60933 505.603615 1035.245792 476.461272C1017.909693 459.20812 1021.421151 427.743238 1043.125838 406.204447 1064.802875 384.638007 1096.461302 381.126548 1113.825051 398.3797L1208.081453 492.055467C1217.814 501.732716 1220.302436 515.861499 1217.399261 530.239125 1219.141166 554.376948 1203.795814 577.215255 1178.220229 583.712836ZM1215.325565 212.770071C1215.767953 213.95899 1216.403887 215.064962 1216.735678 216.309179 1224.532776 243.847864 1207.279624 272.188378 1178.220229 279.570736L651.999097 413.282663C635.243632 417.540653 618.37757 413.725052 605.465356 404.628438 596.147548 407.172172 586.083209 407.61456 576.04652 405.043177L42.664224 269.008711C19.604723 263.119414 4.369969 244.152006 2.40687 222.751462 2.268624 222.253775 2.01978 221.839036 1.881534 221.341349-6.026161 191.839565 11.475834 161.508303 40.977618 153.600608L575.134094 10.487926C585.170783 7.778296 595.262771 8.248334 604.608228 10.930314 617.520443 1.336013 634.414154-2.645483 651.169619 1.806051L1178.16493 142.513246C1207.279624 150.255045 1224.532776 180.060971 1216.735678 209.065068 1216.403887 210.364584 1215.767953 211.525854 1215.325565 212.770071ZM623.907427 107.066867C618.128727 111.711946 611.354653 115.278704 603.7511 117.324751L248.153687 212.604176 604.608228 303.515014C612.211781 305.450464 618.902907 308.878975 624.681607 313.247562L1019.983389 212.797721 623.907427 107.066867ZM23.918011 784.667817 115.547731 693.038097C132.828532 675.757295 164.348714 679.268754 185.942803 700.862843 207.536892 722.456932 211.048351 753.977114 193.767549 771.257915L165.26114 799.736675 604.608228 911.799214C612.211781 913.734664 618.902907 917.163175 624.681607 921.531762L1065.024069 809.635118 1035.245792 780.078036C1017.909693 762.824884 1021.421151 731.360001 1043.125838 709.821211 1064.802875 688.254771 1096.461302 684.770961 1113.825051 701.996464L1208.081453 795.672231C1217.84165 805.377129 1220.330085 819.56121 1217.371612 833.938837 1219.334711 858.270205 1203.96171 881.302057 1178.220229 887.854936L651.999097 1021.566863C635.243632 1025.824853 618.37757 1022.009252 605.465356 1012.912638 596.147548 1015.456372 586.083209 1015.89876 576.04652 1013.327377L42.664224 877.292911C13.19009 869.772306-4.284256 840.961754 3.595789 812.925383 6.941352 801.09149 14.379009 791.497189 23.918011 784.667817Z" fill="#ffffff" /></svg>
